<svg width="36" height="36" viewBox="0 0 93 80" fill="none" xmlns="http://www.w3.org/2000/svg">
<path d="M79.6732 55.2475H24.9138L23.4288 47.5912H79.9207C81.7015 47.5961 83.4286 46.9877 84.8058 45.8702C86.1831 44.7527 87.1248 43.1957 87.4694 41.4662L92.6669 16.9662C92.9063 15.8519 92.8915 14.6988 92.6235 13.5909C92.3555 12.483 91.8411 11.4482 91.1179 10.5621C90.3946 9.67594 89.4807 8.96074 88.4428 8.46863C87.4048 7.97651 86.269 7.71989 85.1182 7.71747H15.6326L14.2713 0.122467H0.163818V7.77872H7.89819L17.1794 55.7987C14.4838 56.4293 12.0798 57.9368 10.3523 60.08C8.62468 62.2232 7.6734 64.8782 7.65069 67.62C7.79559 70.9941 9.28155 74.1749 11.7849 76.4693C14.2882 78.7638 17.6061 79.9861 21.0157 79.87C24.3981 79.9529 27.6775 78.714 30.1441 76.4214C32.6107 74.1287 34.066 70.9668 34.1951 67.62C34.1836 65.9985 33.8471 64.3954 33.2051 62.9037H67.1744C66.5324 64.3954 66.1959 65.9985 66.1844 67.62C66.3293 70.9941 67.8153 74.1749 70.3186 76.4693C72.822 78.7638 76.1398 79.9861 79.5494 79.87C82.8315 79.87 85.9791 78.5793 88.2999 76.282C90.6207 73.9847 91.9245 70.8689 91.9245 67.62C91.9245 64.3711 90.6207 61.2552 88.2999 58.9579C85.9791 56.6606 82.8315 55.37 79.5494 55.37L79.6732 55.2475ZM85.1182 15.5575L79.9207 40.0575H21.8201L17.2413 15.5575H85.1182ZM21.0157 72.3362C19.6813 72.3731 18.3827 71.9064 17.3831 71.0306C16.3835 70.1548 15.7577 68.9356 15.6326 67.62C15.7586 66.2599 16.4194 65.0032 17.4727 64.121C18.526 63.2388 19.8873 62.8016 21.2632 62.9037C22.6325 62.8022 23.9868 63.2412 25.0302 64.1249C26.0736 65.0086 26.7213 66.2651 26.8319 67.62C26.7786 68.3137 26.5837 68.9894 26.2591 69.6064C25.9344 70.2235 25.4867 70.7689 24.943 71.2097C24.3993 71.6506 23.771 71.9777 23.096 72.1713C22.4209 72.3649 21.7132 72.421 21.0157 72.3362ZM79.6732 72.3362C78.2973 72.4383 76.936 72.0011 75.8827 71.1189C74.8294 70.2367 74.1686 68.9801 74.0426 67.62C74.2822 66.3228 74.9737 65.1498 75.9969 64.3053C77.0201 63.4609 78.3101 62.9984 79.6423 62.9984C80.9744 62.9984 82.2644 63.4609 83.2876 64.3053C84.3108 65.1498 85.0024 66.3228 85.242 67.62C85.1159 68.9687 84.4638 70.2157 83.424 71.0963C82.3843 71.9769 81.0388 72.4217 79.6732 72.3362Z" fill="#FFFFFF"/>
</svg>
