<svg width="36" height="36" viewBox="0 0 103 94" fill="none" xmlns="http://www.w3.org/2000/svg">
<path d="M74.1558 29.1908C73.7659 29.5252 73.4481 29.9314 73.2209 30.3859C72.9936 30.8403 72.8614 31.3341 72.8319 31.8385C72.8024 32.3429 72.8762 32.848 73.0489 33.3245C73.2217 33.801 73.4901 34.2396 73.8385 34.6147C80.1846 41.4562 80.8193 64.138 77.075 79.1154C76.8258 80.1123 76.9929 81.1646 77.5398 82.0423C78.0868 82.92 78.9692 83.5518 79.9943 83.7996H80.9462C81.8304 83.8005 82.6901 83.5167 83.3905 82.9925C84.091 82.4683 84.5928 81.7334 84.8173 80.9028C88.625 65.6172 88.9423 39.299 79.7404 29.3757C79.0188 28.6427 78.0305 28.213 76.9869 28.1784C75.9433 28.1439 74.9272 28.5072 74.1558 29.1908Z" fill="#2C3357"/>
<path d="M51.5 24.4449C55.6268 24.4264 59.7121 25.2451 63.4943 26.8487C64.4536 27.2574 65.5409 27.2791 66.5168 26.9093C67.4927 26.5394 68.2773 25.8081 68.6981 24.8764C69.1189 23.9446 69.1413 22.8887 68.7605 21.9408C68.3796 20.993 67.6267 20.2309 66.6673 19.8223C61.8893 17.7756 56.7221 16.7257 51.5 16.7405C32.4616 16.7405 17.0404 29.9921 17.0404 46.2638C17.7282 55.9202 16.6759 65.6191 13.9308 74.9242C13.734 75.3895 13.6336 75.8879 13.6356 76.391C13.6376 76.894 13.7418 77.3917 13.9422 77.8556C14.1427 78.3194 14.4355 78.7402 14.8038 79.0939C15.1721 79.4476 15.6087 79.7272 16.0885 79.9166C16.5637 80.1358 17.0859 80.2414 17.6116 80.2248C18.3937 80.2269 19.1594 80.0061 19.8136 79.5898C20.4678 79.1735 20.982 78.5799 21.2924 77.8826C24.4787 67.6461 25.7258 56.9329 24.9731 46.2638C24.9731 34.2449 36.9039 24.4449 51.5 24.4449Z" fill="#2C3357"/>
<path d="M87.0385 14.2135C77.3174 5.6323 64.6363 0.903784 51.5 0.961894C43.3714 0.947382 35.3446 2.71726 28.0193 6.13925C27.5128 6.34863 27.0573 6.65888 26.682 7.04995C26.3068 7.44102 26.0201 7.90421 25.8407 8.40958C25.6613 8.91495 25.593 9.45126 25.6403 9.98385C25.6877 10.5164 25.8495 11.0335 26.1154 11.5015C26.5804 12.4232 27.4021 13.1286 28.4011 13.4636C29.4 13.7985 30.4948 13.7357 31.4462 13.2889C37.6945 10.3209 44.5449 8.74179 51.5 8.6663C74.6635 8.6663 94.2096 25.8625 94.2096 46.2638C94.2263 47.2829 94.6549 48.2548 95.4028 48.9697C96.1508 49.6847 97.1583 50.0853 98.2077 50.0852C98.735 50.1017 99.2603 50.0151 99.7524 49.8304C100.245 49.6458 100.693 49.3669 101.072 49.0104C101.451 48.6539 101.752 48.2271 101.958 47.7552C102.164 47.2834 102.27 46.7762 102.269 46.2638C102.201 40.1806 100.808 34.1802 98.1832 28.6566C95.5583 23.1329 91.7603 18.2109 87.0385 14.2135Z" fill="#2C3357"/>
<path d="M14.4385 20.9933C13.5645 20.4358 12.5027 20.2272 11.4743 20.4109C10.4458 20.5946 9.52998 21.1564 8.91737 21.9795C3.75626 29.0771 0.904652 37.5146 0.730835 46.2021C0.730703 47.2214 1.1432 48.1998 1.87932 48.9263C2.61543 49.6527 3.61613 50.069 4.66545 50.0852C5.18215 50.0852 5.69379 49.9863 6.17116 49.7943C6.64853 49.6022 7.08228 49.3208 7.44764 48.9659C7.813 48.6111 8.10282 48.1898 8.30056 47.7262C8.49829 47.2625 8.60006 46.7656 8.60006 46.2638C8.75833 39.1071 11.1482 32.1654 15.4539 26.3556C15.7543 25.9403 15.9666 25.471 16.0782 24.9752C16.1898 24.4793 16.1986 23.9668 16.1041 23.4677C16.0096 22.9685 15.8136 22.4926 15.5276 22.0677C15.2417 21.6429 14.8714 21.2777 14.4385 20.9933Z" fill="#2C3357"/>
<path d="M51.5 32.5191C48.9478 32.3536 46.3881 32.7066 43.9842 33.5555C41.5804 34.4045 39.3851 35.7309 37.5385 37.4499C37.1623 37.8008 36.8629 38.2219 36.6584 38.6879C36.454 39.154 36.3486 39.6553 36.3486 40.1619C36.3486 40.6685 36.454 41.1698 36.6584 41.6359C36.8629 42.1019 37.1623 42.523 37.5385 42.8738C37.9042 43.2316 38.3393 43.5156 38.8185 43.7094C39.2977 43.9032 39.8117 44.003 40.3308 44.003C40.8499 44.003 41.3639 43.9032 41.8431 43.7094C42.3224 43.5156 42.7574 43.2316 43.1231 42.8738C45.4486 40.9561 48.4577 40.0041 51.5 40.2235C53.8372 40.097 56.1488 40.7488 58.0528 42.0712C59.9567 43.3937 61.3391 45.3076 61.9712 47.4965C64.0654 53.2286 61.9712 77.8826 58.4808 86.943C58.1339 87.9078 58.1925 88.9664 58.6439 89.8895C59.0953 90.8125 59.9032 91.5255 60.8923 91.8738C61.3345 91.9322 61.7828 91.9322 62.225 91.8738C63.0497 91.8779 63.8549 91.6302 64.5268 91.1657C65.1986 90.7011 65.7032 90.0433 65.9693 89.2852C68.2755 82.0196 69.8066 74.5429 70.5385 66.9732C71.5042 59.7288 71.247 52.38 69.777 45.216C68.6312 41.4194 66.2081 38.1055 62.8949 35.8038C59.5817 33.5021 55.5696 32.3456 51.5 32.5191Z" fill="#2C3357"/>
<path d="M36.777 50.5782C35.744 50.6571 34.7847 51.1285 34.1075 51.8901C33.4302 52.6518 33.0896 53.6421 33.1597 54.6462C33.6238 64.4383 31.914 74.2127 28.1462 83.3065C27.8618 83.7271 27.6657 84.1981 27.5692 84.6924C27.4726 85.1868 27.4776 85.6948 27.5837 86.1873C27.6898 86.6798 27.8951 87.1471 28.1876 87.5624C28.4802 87.9776 28.8543 88.3327 29.2885 88.6072C29.9201 89.0408 30.6728 89.2773 31.4462 89.2852C32.1077 89.2859 32.7583 89.122 33.336 88.809C33.9137 88.4961 34.3992 88.0447 34.7462 87.4977C39.5271 76.9772 41.7007 65.5143 41.0924 54.0298C41.0447 53.5271 40.895 53.0385 40.6518 52.5923C40.4086 52.1462 40.0768 51.7512 39.6756 51.4303C39.2743 51.1093 38.8116 50.8688 38.3141 50.7225C37.8165 50.5763 37.2941 50.5273 36.777 50.5782Z" fill="#2C3357"/>
<path d="M50.8654 46.387C49.8234 46.5535 48.8916 47.1137 48.2733 47.9451C47.655 48.7765 47.4006 49.8118 47.5654 50.8248C48.365 63.2447 46.6841 75.6976 42.6154 87.4977C42.1554 88.4218 42.0907 89.4851 42.4356 90.4553C42.7805 91.4254 43.5068 92.2235 44.4558 92.6751C45.4005 93.1027 46.4797 93.1552 47.4636 92.8213C48.4475 92.4874 49.2582 91.7936 49.7231 90.8877C54.5319 77.6294 56.4762 63.5509 55.4347 49.5304C55.3502 49.0312 55.1646 48.5533 54.8885 48.1243C54.6124 47.6953 54.2514 47.3239 53.8263 47.0315C53.4013 46.739 52.9207 46.5315 52.4124 46.4209C51.9041 46.3103 51.3783 46.2988 50.8654 46.387Z" fill="#2C3357"/>
</svg>
