<svg width="36" height="36" viewBox="0 0 98 68" fill="none" xmlns="http://www.w3.org/2000/svg">
<path d="M8.09473 7.96875H44.1097V0.3125H8.09473C6.06416 0.3125 4.11677 1.11914 2.68094 2.55496C1.24511 3.99079 0.438477 5.93819 0.438477 7.96875V60.0312C0.438477 62.0618 1.24511 64.0092 2.68094 65.445C4.11677 66.8809 6.06416 67.6875 8.09473 67.6875H44.1097V60.0312H8.09473V7.96875Z" fill="#2C3357"/>
<path d="M94.4572 27.875L69.9572 11.0925L65.6085 17.2175L84.4735 30.08H28.981V37.7975H84.5347L65.6697 50.7212L70.0185 56.8462L94.4572 40.125C95.4193 39.4196 96.2017 38.4975 96.741 37.4333C97.2803 36.3692 97.5613 35.193 97.5613 34C97.5613 32.807 97.2803 31.6308 96.741 30.5667C96.2017 29.5025 95.4193 28.5804 94.4572 27.875Z" fill="#2C3357"/>
</svg>
