<svg width="36" height="36" viewBox="0 0 69 98" fill="none" xmlns="http://www.w3.org/2000/svg">
<path d="M18.7219 38.7404H51.2063V31.0842H18.7219V38.7404Z" fill="#2C3357"/>
<path d="M18.7219 53.4404H51.2063V45.7842H18.7219V53.4404Z" fill="#2C3357"/>
<path d="M18.7219 67.8342H51.2063V60.1779H18.7219V67.8342Z" fill="#2C3357"/>
<path fill-rule="evenodd" clip-rule="evenodd" d="M68.686 97.9014V0.0985107L55.1271 6.01929L44.6572 1.81443L35.0196 6.02713L24.664 1.81071L15.0117 6.021L0.314087 0.143578V97.8563L15.0117 91.9789L24.6644 96.1894L35.0196 91.971L44.6568 96.1856L55.1271 91.9806L68.686 97.9014ZM8.04846 86.5061V11.4938L15.1424 14.3306L24.7684 10.1318L35.1272 14.3496L44.7849 10.1281L55.2532 14.3323L60.9516 11.844V86.1559L55.2532 83.6676L44.7853 87.8717L35.1273 83.6479L24.768 87.868L15.1424 83.6693L8.04846 86.5061Z" fill="#2C3357"/>
</svg>
