<svg width="36" height="36" viewBox="0 0 99 98" fill="none" xmlns="http://www.w3.org/2000/svg">
<path d="M82.6732 64.2475H27.9138L26.4288 56.5912H82.9207C84.7015 56.5961 86.4286 55.9877 87.8058 54.8702C89.1831 53.7527 90.1248 52.1957 90.4694 50.4662L95.6669 25.9662C95.9063 24.8519 95.8915 23.6988 95.6235 22.5909C95.3555 21.483 94.8411 20.4482 94.1179 19.5621C93.3946 18.6759 92.4807 17.9607 91.4428 17.4686C90.4048 16.9765 89.269 16.7199 88.1182 16.7175H18.6326L17.2713 9.12247H3.16382V16.7787H10.8982L20.1794 64.7987C17.4838 65.4293 15.0798 66.9368 13.3523 69.08C11.6247 71.2232 10.6734 73.8782 10.6507 76.62C10.7956 79.9941 12.2816 83.1749 14.7849 85.4693C17.2882 87.7638 20.6061 88.9861 24.0157 88.87C27.3981 88.9529 30.6775 87.714 33.1441 85.4214C35.6107 83.1287 37.066 79.9668 37.1951 76.62C37.1836 74.9985 36.8471 73.3954 36.2051 71.9037H70.1744C69.5324 73.3954 69.1959 74.9985 69.1844 76.62C69.3293 79.9941 70.8153 83.1749 73.3186 85.4693C75.822 87.7638 79.1398 88.9861 82.5494 88.87C85.8315 88.87 88.9791 87.5793 91.2999 85.282C93.6207 82.9847 94.9245 79.8689 94.9245 76.62C94.9245 73.3711 93.6207 70.2552 91.2999 67.9579C88.9791 65.6606 85.8315 64.37 82.5494 64.37L82.6732 64.2475ZM88.1182 24.5575L82.9207 49.0575H24.8201L20.2413 24.5575H88.1182ZM24.0157 81.3362C22.6813 81.3731 21.3827 80.9064 20.3831 80.0306C19.3835 79.1548 18.7577 77.9356 18.6326 76.62C18.7586 75.2599 19.4194 74.0032 20.4727 73.121C21.526 72.2388 22.8873 71.8016 24.2632 71.9037C25.6325 71.8022 26.9868 72.2412 28.0302 73.1249C29.0736 74.0086 29.7213 75.2651 29.8319 76.62C29.7786 77.3137 29.5837 77.9894 29.2591 78.6064C28.9344 79.2235 28.4867 79.7689 27.943 80.2097C27.3993 80.6506 26.771 80.9777 26.096 81.1713C25.4209 81.3649 24.7132 81.421 24.0157 81.3362ZM82.6732 81.3362C81.2973 81.4383 79.936 81.0011 78.8827 80.1189C77.8294 79.2367 77.1686 77.9801 77.0426 76.62C77.2822 75.3228 77.9737 74.1498 78.9969 73.3053C80.0201 72.4609 81.3101 71.9984 82.6423 71.9984C83.9744 71.9984 85.2644 72.4609 86.2876 73.3053C87.3108 74.1498 88.0024 75.3228 88.242 76.62C88.1159 77.9687 87.4638 79.2157 86.424 80.0963C85.3843 80.9769 84.0388 81.4217 82.6732 81.3362Z" fill="#2C3357"/>
</svg>
