<svg width="69" height="98" viewBox="0 0 69 98" fill="none" xmlns="http://www.w3.org/2000/svg">
<path fill-rule="evenodd" clip-rule="evenodd" d="M60.5261 16.8438H8.47397L11.0092 90.3438L57.9498 90.3438L60.5261 16.8438ZM8.47397 9.1875C4.09893 9.1875 0.594804 12.7767 0.744102 17.105L3.27935 90.605C3.42161 94.7294 6.84037 98 11.0092 98H57.9498C62.1169 98 65.535 94.7319 65.6795 90.6093L68.2558 17.1092C68.4076 12.7793 64.9028 9.1875 60.5261 9.1875H8.47397Z" fill="#2C3357"/>
<path d="M7.64403 24.5H60.4254V32.1563H7.64403V24.5Z" fill="#2C3357"/>
<path d="M23.6548 42.875L23.6548 73.5H15.9204L15.9204 42.875H23.6548Z" fill="#2C3357"/>
<path d="M38.3501 42.875L38.3501 73.5H30.6157L30.6157 42.875H38.3501Z" fill="#2C3357"/>
<path d="M53.0454 42.875V73.5H45.311V42.875H53.0454Z" fill="#2C3357"/>
<path d="M34.4829 0C38.7492 0 42.2173 3.21671 42.2173 7.16903C42.2173 11.1214 38.7492 14.3381 34.4829 14.3381C30.2166 14.3381 26.7485 11.1214 26.7485 7.16903C26.7485 3.21671 30.2166 0 34.4829 0Z" fill="#2C3357"/>
<path d="M26.7485 7.36914H42.2173V15.3125H26.7485V7.36914Z" fill="#2C3357"/>
</svg>
